<svg xmlns="http://www.w3.org/2000/svg" viewBox="292.94 211.75 256.0 171.07" role="img" aria-label="AC²"><path fill="currentColor" fill-rule="nonzero" d="M 322.07 336.14 L 350.53 252.88 L 376.98 323.77 C 378.07 328.1 379.47 332.23 381.13 336.14 Z M 451.05 375.64 C 417.93 375.64 400.38 342.18 400.38 302.55 C 400.38 260.65 415.3 221.88 450.89 221.88 C 481.28 221.88 468.5 258.23 482.82 258.23 C 491.96 258.23 499.35 244.4 487.7 234.47 C 472.9 221.89 463.01 218.88 449.04 218.88 C 416.98 218.88 390.07 237.42 379.24 268.56 L 361.16 219.93 L 357.58 219.93 L 309.55 360.93 C 306.45 370.07 299.86 379.53 293.48 380.16 L 293.48 382.07 L 319.82 382.07 L 319.82 380.16 C 309.9 379.96 311.04 368.31 314.23 359.01 L 320.81 339.82 L 382.8 339.82 C 395.71 366.45 421.37 382.21 448.53 382.21 C 462.86 382.21 487.59 378.27 501.52 336.8 L 501.52 336.79 L 501.56 336.75 C 495.82 339.25 490.19 375.64 451.05 375.64  M 548.29 240.68 L 548.29 240.68 L 548.21 240.75 C 548.21 225.09 537.42 212.34 517.15 212.34 C 511.59 212.34 504.78 213.55 496.16 220.94 C 489.39 226.76 493.73 234.89 499.04 234.89 C 507.39 234.89 499.9 213.55 517.66 213.55 C 529.43 213.55 535.93 225.54 535.93 238.84 C 535.93 270.58 489.95 267.48 489.95 307.39 L 526.75 307.39 C 529.32 307.39 537.86 307.39 544.16 307.95 L 547.9 285 L 547.16 284.65 C 541.33 294.15 538.64 295.17 529.28 295.17 L 496.48 295.17 C 496.48 265.7 548.29 275.47 548.29 240.68 "/></svg>