<svg viewBox="0 0 400 160" xmlns="http://www.w3.org/2000/svg" role="img" aria-label="Cinema">
<style>.s{transform-box:fill-box;transform-origin:center;animation:s 30s linear infinite}@keyframes s{to{transform:rotate(360deg)}}</style>
<g class="s" opacity=".8"><g stroke="#d99a2b" stroke-width="4" stroke-linecap="round">
<line x1="150" y1="20" x2="150" y2="6"/><line x1="150" y1="124" x2="150" y2="138"/>
<line x1="98" y1="72" x2="84" y2="72"/><line x1="202" y1="72" x2="216" y2="72"/>
<line x1="113" y1="35" x2="103" y2="25"/><line x1="187" y1="109" x2="197" y2="119"/>
<line x1="187" y1="35" x2="197" y2="25"/><line x1="113" y1="109" x2="103" y2="119"/></g></g>
<circle cx="150" cy="72" r="40" fill="#fffaf0" stroke="#b5532f" stroke-width="5"/>
<circle cx="150" cy="72" r="20" fill="#b5532f"/>
<rect x="250" y="44" width="40" height="60" rx="5" fill="none" stroke="#2f6b63" stroke-width="4"/>
<g fill="#2f6b63"><rect x="255" y="49" width="6" height="6"/><rect x="279" y="49" width="6" height="6"/><rect x="255" y="95" width="6" height="6"/><rect x="279" y="95" width="6" height="6"/></g>
<g fill="#d99a2b"><circle cx="320" cy="60" r="5"/><circle cx="330" cy="95" r="4"/></g>
<path d="M40 132 H360" stroke="#3a2c23" stroke-width="2" opacity=".3"/>
</svg>
