<svg viewBox="0 0 400 160" xmlns="http://www.w3.org/2000/svg" role="img" aria-label="Table">
<style>.l{transform-box:fill-box;transform-origin:200px 20px;animation:l 5s ease-in-out infinite}@keyframes l{0%,100%{transform:rotate(-3deg)}50%{transform:rotate(3deg)}}</style>
<g class="l"><line x1="200" y1="14" x2="200" y2="44" stroke="#9c6b4a" stroke-width="3"/><path d="M186 44 h28 l-6 16 h-16 Z" fill="#d99a2b"/></g>
<rect x="120" y="96" width="160" height="9" rx="4" fill="#9c6b4a"/>
<rect x="138" y="105" width="7" height="34" fill="#9c6b4a"/><rect x="255" y="105" width="7" height="34" fill="#9c6b4a"/>
<path d="M150 96 v-12 a10 10 0 0 1 20 0 v12 Z" fill="#b5532f"/>
<path d="M230 96 v-12 a10 10 0 0 1 20 0 v12 Z" fill="#2f6b63"/>
<circle cx="200" cy="90" r="7" fill="#6b3a5b"/>
<g fill="#6f7a39"><path d="M300 100 q14 -8 20 -24 q-16 4 -20 22Z"/><path d="M300 100 q-14 -8 -20 -24 q16 4 20 22Z"/></g>
<g fill="#d99a2b"><circle cx="96" cy="60" r="5"/><circle cx="320" cy="60" r="4"/></g>
<path d="M40 139 H360" stroke="#3a2c23" stroke-width="2" opacity=".3"/>
</svg>
