<svg viewBox="0 0 80 80" xmlns="http://www.w3.org/2000/svg" role="img" aria-label="театрални маски">
<g fill="none" stroke="#f3e6cf" stroke-width="3.2" stroke-linecap="round" stroke-linejoin="round">
<path d="M18 24 c14 -4 22 2 22 16 c0 14 -8 22 -16 22 c-9 0 -14 -10 -14 -24 c0 -8 2 -12 8 -14 Z"/>
<path d="M24 38 q3 -3 6 0 M30 50 q-4 4 -9 1"/>
<path d="M62 24 c-14 -4 -22 2 -22 16 c0 14 8 22 16 22 c9 0 14 -10 14 -24 c0 -8 -2 -12 -8 -14 Z"/>
<path d="M56 38 q-3 -3 -6 0 M50 52 q4 4 9 1"/>
</g></svg>
